<mxfile host="app.diagrams.net" agent="Mozilla/5.0 (X11; Linux x86_64; rv:109.0) Gecko/20100101 Firefox/115.0" version="24.8.3">
  <diagram name="Página-1" id="N_z-JypmZl4Z9UGocTOk">
    <mxGraphModel dx="1165" dy="588" grid="1" gridSize="10" guides="1" tooltips="1" connect="1" arrows="1" fold="1" page="1" pageScale="1" pageWidth="827" pageHeight="1169" background="#d7fb9f" math="0" shadow="0">
      <root>
        <mxCell id="0" />
        <mxCell id="1" parent="0" />
        <mxCell id="G_acN40zDCopHe4ELP1K-12" style="edgeStyle=orthogonalEdgeStyle;rounded=0;orthogonalLoop=1;jettySize=auto;html=1;exitX=1;exitY=0.5;exitDx=0;exitDy=0;" edge="1" parent="1" source="G_acN40zDCopHe4ELP1K-1" target="G_acN40zDCopHe4ELP1K-2">
          <mxGeometry relative="1" as="geometry" />
        </mxCell>
        <mxCell id="G_acN40zDCopHe4ELP1K-1" value="Menú juego" style="rounded=0;whiteSpace=wrap;html=1;" vertex="1" parent="1">
          <mxGeometry x="80" y="120" width="120" height="60" as="geometry" />
        </mxCell>
        <mxCell id="G_acN40zDCopHe4ELP1K-7" style="edgeStyle=orthogonalEdgeStyle;rounded=0;orthogonalLoop=1;jettySize=auto;html=1;exitX=1;exitY=0.5;exitDx=0;exitDy=0;" edge="1" parent="1" source="G_acN40zDCopHe4ELP1K-2" target="G_acN40zDCopHe4ELP1K-3">
          <mxGeometry relative="1" as="geometry" />
        </mxCell>
        <mxCell id="G_acN40zDCopHe4ELP1K-2" value="&lt;div&gt;Control de entrada de datos&lt;/div&gt;" style="rounded=0;whiteSpace=wrap;html=1;" vertex="1" parent="1">
          <mxGeometry x="280" y="120" width="120" height="60" as="geometry" />
        </mxCell>
        <mxCell id="G_acN40zDCopHe4ELP1K-8" style="edgeStyle=orthogonalEdgeStyle;rounded=0;orthogonalLoop=1;jettySize=auto;html=1;exitX=0.5;exitY=1;exitDx=0;exitDy=0;" edge="1" parent="1" source="G_acN40zDCopHe4ELP1K-3" target="G_acN40zDCopHe4ELP1K-4">
          <mxGeometry relative="1" as="geometry" />
        </mxCell>
        <mxCell id="G_acN40zDCopHe4ELP1K-3" value="Sistema de pistas" style="rounded=0;whiteSpace=wrap;html=1;" vertex="1" parent="1">
          <mxGeometry x="480" y="120" width="120" height="60" as="geometry" />
        </mxCell>
        <mxCell id="G_acN40zDCopHe4ELP1K-9" style="edgeStyle=orthogonalEdgeStyle;rounded=0;orthogonalLoop=1;jettySize=auto;html=1;" edge="1" parent="1" source="G_acN40zDCopHe4ELP1K-4" target="G_acN40zDCopHe4ELP1K-5">
          <mxGeometry relative="1" as="geometry" />
        </mxCell>
        <mxCell id="G_acN40zDCopHe4ELP1K-4" value="Cálculo de puntuación" style="rounded=0;whiteSpace=wrap;html=1;" vertex="1" parent="1">
          <mxGeometry x="480" y="240" width="120" height="60" as="geometry" />
        </mxCell>
        <mxCell id="G_acN40zDCopHe4ELP1K-10" style="edgeStyle=orthogonalEdgeStyle;rounded=0;orthogonalLoop=1;jettySize=auto;html=1;" edge="1" parent="1" source="G_acN40zDCopHe4ELP1K-5" target="G_acN40zDCopHe4ELP1K-6">
          <mxGeometry relative="1" as="geometry" />
        </mxCell>
        <mxCell id="G_acN40zDCopHe4ELP1K-13" style="edgeStyle=orthogonalEdgeStyle;rounded=0;orthogonalLoop=1;jettySize=auto;html=1;exitX=0.5;exitY=0;exitDx=0;exitDy=0;entryX=0.5;entryY=1;entryDx=0;entryDy=0;" edge="1" parent="1" source="G_acN40zDCopHe4ELP1K-5" target="G_acN40zDCopHe4ELP1K-1">
          <mxGeometry relative="1" as="geometry" />
        </mxCell>
        <mxCell id="G_acN40zDCopHe4ELP1K-5" value="Petición de repetir el juego" style="rounded=0;whiteSpace=wrap;html=1;" vertex="1" parent="1">
          <mxGeometry x="280" y="240" width="120" height="60" as="geometry" />
        </mxCell>
        <mxCell id="G_acN40zDCopHe4ELP1K-6" value="Fin del juego" style="rounded=0;whiteSpace=wrap;html=1;" vertex="1" parent="1">
          <mxGeometry x="80" y="240" width="120" height="60" as="geometry" />
        </mxCell>
        <mxCell id="G_acN40zDCopHe4ELP1K-14" value="" style="rounded=0;whiteSpace=wrap;html=1;fillColor=none;" vertex="1" parent="1">
          <mxGeometry x="40" y="80" width="600" height="260" as="geometry" />
        </mxCell>
      </root>
    </mxGraphModel>
  </diagram>
</mxfile>
